<?xml version="1.0" encoding="UTF-8" standalone="no"?>
<svg
   xmlns:dc="http://purl.org/dc/elements/1.1/"
   xmlns:cc="http://creativecommons.org/ns#"
   xmlns:rdf="http://www.w3.org/1999/02/22-rdf-syntax-ns#"
   xmlns:svg="http://www.w3.org/2000/svg"
   xmlns="http://www.w3.org/2000/svg"
   xmlns:sodipodi="http://sodipodi.sourceforge.net/DTD/sodipodi-0.dtd"
   xmlns:inkscape="http://www.inkscape.org/namespaces/inkscape"
   version="1.0"
   width="328.000000pt"
   height="206.000000pt"
   viewBox="0 0 328.000000 206.000000"
   preserveAspectRatio="xMidYMid meet"
   id="svg12"
   sodipodi:docname="log.svg"
   inkscape:version="1.0.1 (3bc2e813f5, 2020-09-07)">
  <defs
     id="defs16" />
  <sodipodi:namedview
     pagecolor="#ffffff"
     bordercolor="#666666"
     borderopacity="1"
     objecttolerance="10"
     gridtolerance="10"
     guidetolerance="10"
     inkscape:pageopacity="0"
     inkscape:pageshadow="2"
     inkscape:window-width="1920"
     inkscape:window-height="972"
     id="namedview14"
     showgrid="false"
     inkscape:zoom="0.4601772"
     inkscape:cx="282.88313"
     inkscape:cy="138.486"
     inkscape:window-x="0"
     inkscape:window-y="27"
     inkscape:window-maximized="1"
     inkscape:current-layer="svg12"
     inkscape:document-rotation="0" />
  <metadata
     id="metadata2">
Created by potrace 1.16, written by Peter Selinger 2001-2019
<rdf:RDF>
  <cc:Work
     rdf:about="">
    <dc:format>image/svg+xml</dc:format>
    <dc:type
       rdf:resource="http://purl.org/dc/dcmitype/StillImage" />
  </cc:Work>
</rdf:RDF>
</metadata>
  <g
     transform="translate(0.000000,206.000000) scale(0.100000,-0.100000)"
     fill="#000000"
     stroke="none"
     id="g10"
     style="fill:#d8dee9;fill-opacity:1">
    <path
       d="M1323 1385 c-219 -61 -339 -243 -311 -472 20 -168 156 -311 327 -343 265 -50 507 103 540 343 29 206 -75 383 -270 458 -71 28 -213 35 -286 14z m270 -129 c142 -69 205 -228 153 -383 -78 -231 -419 -275 -566 -71 -71 97 -71 258 -1 355 67 92 161 136 282 130 58 -3 90 -10 132 -31z"
       id="path4"
       style="fill:#d8dee9;fill-opacity:1" />
    <path
       d="M2323 1385 c-79 -22 -130 -51 -191 -109 -166 -156 -173 -418 -16 -586 108 -115 288 -157 479 -111 44 11 97 27 118 35 l37 16 0 170 0 170 -140 0 -140 0 0 -55 0 -55 80 0 80 0 0 -79 0 -80 -76 -17 c-145 -32 -266 -2 -348 86 -63 67 -79 109 -80 205 -1 68 3 88 27 137 85 174 296 227 515 127 l63 -28 -3 57 -3 57 -84 33 c-101 41 -231 52 -318 27z"
       id="path6"
       style="fill:#d8dee9;fill-opacity:1" />
    <path
       d="M450 980 l0 -410 245 0 245 0 0 55 0 55 -185 0 -185 0 0 355 0 355 -60 0 -60 0 0 -410z"
       id="path8"
       style="fill:#d8dee9;fill-opacity:1" />
  </g>
</svg>
