<?xml version="1.0" standalone="no"?>
<!DOCTYPE svg PUBLIC "-//W3C//DTD SVG 20010904//EN"
 "http://www.w3.org/TR/2001/REC-SVG-20010904/DTD/svg10.dtd">
<svg version="1.0" xmlns="http://www.w3.org/2000/svg"
 width="328.000000pt" height="206.000000pt" viewBox="0 0 328.000000 206.000000"
 preserveAspectRatio="xMidYMid meet">
<metadata>
Created by potrace 1.16, written by Peter Selinger 2001-2019
</metadata>
<g transform="translate(0.000000,206.000000) scale(0.100000,-0.100000)"
fill="#000000" stroke="none">
<path d="M1323 1385 c-219 -61 -339 -243 -311 -472 20 -168 156 -311 327 -343
265 -50 507 103 540 343 29 206 -75 383 -270 458 -71 28 -213 35 -286 14z
m270 -129 c142 -69 205 -228 153 -383 -78 -231 -419 -275 -566 -71 -71 97 -71
258 -1 355 67 92 161 136 282 130 58 -3 90 -10 132 -31z"/>
<path d="M2323 1385 c-79 -22 -130 -51 -191 -109 -166 -156 -173 -418 -16
-586 108 -115 288 -157 479 -111 44 11 97 27 118 35 l37 16 0 170 0 170 -140
0 -140 0 0 -55 0 -55 80 0 80 0 0 -79 0 -80 -76 -17 c-145 -32 -266 -2 -348
86 -63 67 -79 109 -80 205 -1 68 3 88 27 137 85 174 296 227 515 127 l63 -28
-3 57 -3 57 -84 33 c-101 41 -231 52 -318 27z"/>
<path d="M450 980 l0 -410 245 0 245 0 0 55 0 55 -185 0 -185 0 0 355 0 355
-60 0 -60 0 0 -410z"/>
</g>
</svg>
